# xmcd
#
# Track frame offsets:
#	150
#	15616
#	37268
#	56955
#	69914
#	86840
#	106579
#	124174
#	141433
#	156719
#	170264
#	181930
#	194302
#	212690
#
# Disc length: 3211 seconds
#
# Revision: 0
# Processed by: cddbd v1.5.1PL0 Copyright (c) Steve Scherf et al.
# Submitted via: dBpowerAMP V4.0
#
DISCID=cc0c890e
DTITLE=Cesar e Paulinho - Thaca Thaca na Buchaca
DYEAR=2001
DGENRE=Country
TTITLE0=Thaca Thaca na Buchaca
TTITLE1=Nunca Mais
TTITLE2=Santa Maria do Brasil
TTITLE3=Remelexo
TTITLE4=Que Saudade Matadeira
TTITLE5=Fui Eu
TTITLE6=A Gente Se Ama
TTITLE7=Ai Que Vontade de Você
TTITLE8=A Morena do Rodeio
TTITLE9=Ela é Doida
TTITLE10=Chute pro Gooorrr
TTITLE11=Beijo Pega Rapaz
TTITLE12=Favela
TTITLE13=Pout-Pourri de Pagode
EXTD=
EXTT0=
EXTT1=
EXTT2=
EXTT3=
EXTT4=
EXTT5=
EXTT6=
EXTT7=
EXTT8=
EXTT9=
EXTT10=
EXTT11=
EXTT12=
EXTT13=
PLAYORDER=
